# xmcd
#
# Track frame offsets: 
#        150
#        18231
#        35982
#        62929
#        81174
#        97126
#        116723
#        133025
#        149752
#        168985
#        182026
#        197557
#        212661
#        230343
#
# Disc length: 3268 seconds
#
# Revision: 4
# Processed by: cddbd v1.5.2PL0 Copyright (c) Steve Scherf et al.
# Submitted via: ExactAudioCopy v0.99pb5
#
DISCID=d20cc20e
DTITLE=John Campbelljohn - Nerves Of Steel
DYEAR=2002
DGENRE=Blues
TTITLE0=No Philosopher
TTITLE1=I'd Rather Be Rich Than Famous
TTITLE2=Guilt Trip
TTITLE3=Put Your Brakes On
TTITLE4=Do The Right Thing
TTITLE5=Do Unto Me
TTITLE6=Don't You Get Your Fingers Dirty
TTITLE7=Nerves Of Steel
TTITLE8=I'll Be Watching You
TTITLE9=Honey  I've Had My Fill
TTITLE10=Let's Get Twisted
TTITLE11=Take It Out In The Street
TTITLE12=Punching Bag
TTITLE13=Nobody's Business
EXTD=YEAR: 2000
EXTT0=
EXTT1=
EXTT2=
EXTT3=
EXTT4=
EXTT5=
EXTT6=
EXTT7=
EXTT8=
EXTT9=
EXTT10=
EXTT11=
EXTT12=
EXTT13=
PLAYORDER=
